<svg fill="#000000" xmlns="http://www.w3.org/2000/svg"  viewBox="0 0 64 64" width="64px" height="64px"><path d="M 32 2 C 29.796875 2 26.648438 2.6875 24.691406 4.007813 C 20.96875 4.144531 18.421875 6.757813 18.003906 10.902344 C 17.75 13.460938 17.984375 15.292969 18.136719 16.503906 C 18.191406 16.925781 18.25 17.402344 18.230469 17.542969 C 18.199219 17.730469 18.167969 17.917969 18.140625 18.105469 C 17.976563 18.113281 17.832031 18.140625 17.703125 18.171875 C 16.054688 18.613281 15.363281 21.023438 16.101563 23.777344 C 16.636719 25.773438 17.757813 27.273438 18.984375 27.734375 C 19.582031 29.5625 20.449219 31.378906 21.515625 33.035156 L 8.253906 39.378906 C 4.457031 41.195313 2 45.089844 2 49.300781 L 2 57 C 2 58.652344 3.347656 60 5 60 L 26 60 L 26 61 C 26 62.101563 26.898438 63 28 63 L 36 63 C 37.101563 63 38 62.101563 38 61 L 38 60 L 59 60 C 60.652344 60 62 58.652344 62 57 L 62 49.300781 C 62 45.089844 59.546875 41.195313 55.746094 39.378906 L 42.484375 33.03125 C 43.550781 31.378906 44.417969 29.5625 45.015625 27.734375 C 46.242188 27.273438 47.363281 25.773438 47.898438 23.777344 C 48.636719 21.023438 47.945313 18.613281 46.296875 18.171875 C 46.171875 18.136719 46.027344 18.113281 45.863281 18.105469 C 45.722656 17.035156 45.449219 16.035156 44.945313 14.667969 C 44.929688 14.628906 44.917969 14.589844 44.90625 14.558594 C 45.261719 14.585938 45.824219 14.734375 46.285156 14.921875 C 46.632813 15.066406 47.027344 15.003906 47.3125 14.765625 C 47.597656 14.527344 47.726563 14.148438 47.648438 13.785156 C 46.035156 6.40625 40.558594 2 33 2 Z M 32 4 L 33 4 C 39.070313 4 43.453125 7.101563 45.25 12.582031 C 44.558594 12.503906 43.84375 12.589844 43.355469 13.0625 C 42.972656 13.425781 42.613281 14.125 43.066406 15.359375 C 43.683594 17.035156 43.902344 18.027344 43.96875 19.433594 C 43.984375 19.792969 44.191406 20.113281 44.511719 20.277344 C 44.828125 20.4375 45.210938 20.421875 45.515625 20.222656 C 45.675781 20.117188 45.761719 20.105469 45.78125 20.105469 C 46.023438 20.1875 46.460938 21.40625 45.964844 23.257813 C 45.472656 25.101563 44.527344 25.878906 44.234375 25.878906 C 43.792969 25.878906 43.402344 26.171875 43.277344 26.59375 C 41.589844 32.265625 37.175781 38 32 38 C 26.824219 38 22.410156 32.261719 20.722656 26.59375 C 20.597656 26.171875 20.210938 25.878906 19.765625 25.878906 C 19.472656 25.878906 18.527344 25.101563 18.035156 23.261719 C 17.535156 21.390625 17.984375 20.167969 18.214844 20.105469 C 18.21875 20.105469 18.304688 20.105469 18.484375 20.222656 C 18.789063 20.417969 19.167969 20.4375 19.488281 20.277344 C 19.808594 20.113281 20.015625 19.792969 20.03125 19.433594 C 20.054688 18.914063 20.113281 18.394531 20.203125 17.890625 C 20.277344 17.460938 20.214844 16.980469 20.121094 16.25 C 19.976563 15.128906 19.761719 13.433594 19.996094 11.101563 C 20.316406 7.910156 22.1875 6 25.019531 6 C 25.234375 6 25.445313 5.929688 25.621094 5.800781 C 26.988281 4.773438 29.730469 4 32 4 Z M 26.527344 10.125 C 25.8125 10.0625 25.09375 10.386719 24.683594 11.015625 L 23.078125 13.449219 C 22.773438 13.910156 22.902344 14.53125 23.363281 14.835938 C 23.535156 14.949219 23.722656 15 23.910156 15 C 24.238281 15 24.554688 14.84375 24.75 14.550781 L 26.351563 12.117188 L 27.914063 12.878906 C 30.761719 14.265625 33.941406 15 37.109375 15 L 39.667969 15 C 40.21875 15 40.667969 14.550781 40.667969 14 C 40.667969 13.449219 40.21875 13 39.667969 13 L 37.109375 13 C 34.246094 13 31.367188 12.335938 28.792969 11.078125 L 27.230469 10.316406 C 27.003906 10.207031 26.765625 10.144531 26.527344 10.125 Z M 22.703125 34.6875 C 25.160156 37.789063 28.402344 40 32 40 C 35.597656 40 38.839844 37.789063 41.296875 34.6875 L 43.824219 35.890625 L 34.5625 48 L 29.4375 48 L 20.175781 35.890625 Z M 18.332031 36.777344 L 27.09375 48.230469 C 26.445313 48.558594 26 49.226563 26 50 L 26 58 L 5 58 C 4.449219 58 4 57.550781 4 57 L 4 49.300781 C 4 45.855469 6.007813 42.667969 9.117188 41.183594 Z M 45.667969 36.777344 L 54.882813 41.183594 C 57.992188 42.667969 60 45.855469 60 49.300781 L 60 57 C 60 57.550781 59.550781 58 59 58 L 38 58 L 38 50 C 38 49.226563 37.554688 48.558594 36.90625 48.230469 Z M 30.964844 50 L 35.050781 50 C 35.054688 50 35.054688 50 35.058594 50 C 35.0625 50 35.0625 50 35.0625 50 L 36 50 L 36 61 L 28 61 L 28 50 L 28.449219 50 L 30.15625 52.234375 C 30.054688 52.46875 30 52.726563 30 53 C 30 54.101563 30.898438 55 32 55 C 33.101563 55 34 54.101563 34 53 C 34 51.898438 33.101563 51 32 51 C 31.914063 51 31.832031 51.015625 31.75 51.027344 Z M 7 52 C 6.449219 52 6 52.449219 6 53 L 6 55 C 6 55.550781 6.449219 56 7 56 C 7.550781 56 8 55.550781 8 55 L 8 53 C 8 52.449219 7.550781 52 7 52 Z M 12 52 C 11.449219 52 11 52.449219 11 53 L 11 55 C 11 55.550781 11.449219 56 12 56 C 12.550781 56 13 55.550781 13 55 L 13 53 C 13 52.449219 12.550781 52 12 52 Z M 17 52 C 16.449219 52 16 52.449219 16 53 L 16 55 C 16 55.550781 16.449219 56 17 56 C 17.550781 56 18 55.550781 18 55 L 18 53 C 18 52.449219 17.550781 52 17 52 Z M 22 52 C 21.449219 52 21 52.449219 21 53 L 21 55 C 21 55.550781 21.449219 56 22 56 C 22.550781 56 23 55.550781 23 55 L 23 53 C 23 52.449219 22.550781 52 22 52 Z M 42 52 C 41.449219 52 41 52.449219 41 53 L 41 55 C 41 55.550781 41.449219 56 42 56 C 42.550781 56 43 55.550781 43 55 L 43 53 C 43 52.449219 42.550781 52 42 52 Z M 47 52 C 46.449219 52 46 52.449219 46 53 L 46 55 C 46 55.550781 46.449219 56 47 56 C 47.550781 56 48 55.550781 48 55 L 48 53 C 48 52.449219 47.550781 52 47 52 Z M 52 52 C 51.449219 52 51 52.449219 51 53 L 51 55 C 51 55.550781 51.449219 56 52 56 C 52.550781 56 53 55.550781 53 55 L 53 53 C 53 52.449219 52.550781 52 52 52 Z M 57 52 C 56.449219 52 56 52.449219 56 53 L 56 55 C 56 55.550781 56.449219 56 57 56 C 57.550781 56 58 55.550781 58 55 L 58 53 C 58 52.449219 57.550781 52 57 52 Z"/></svg>